<?xml version="1.0" encoding="iso-8859-1"?>
<!-- Generator: Adobe Illustrator 19.0.0, SVG Export Plug-In . SVG Version: 6.00 Build 0)  -->
<svg version="1.1" id="Layer_1" xmlns="http://www.w3.org/2000/svg" xmlns:xlink="http://www.w3.org/1999/xlink" x="0px" y="0px"
	 viewBox="0 0 512 512" style="enable-background:new 0 0 512 512;" xml:space="preserve">
<g>
	<path style="fill:#FFFFFF;" d="M465.455,151.276h-51.793l-240,256h291.793c12.858,0,23.273-10.415,23.273-23.273V174.549
		C488.727,161.691,478.313,151.276,465.455,151.276z"/>
	<path style="fill:#FFFFFF;" d="M46.545,407.276c-12.835,0-23.273-10.438-23.273-23.273V174.549
		c0-12.835,10.438-23.273,23.273-23.273h104.727c4.084,0,7.878-2.141,9.972-5.644L189.37,98.75c2.095-3.479,5.911-5.644,9.972-5.644
		h113.28c4.061,0,7.889,2.164,9.972,5.655l28.125,46.883c0.57,0.943,1.28,1.769,2.06,2.502l-242.909,259.13H46.545z"/>
</g>
<g>
	<path style="fill:#72C6EF;" d="M214.458,363.768c12.742,5.516,26.775,8.599,41.542,8.599c57.844,0,104.727-46.883,104.727-104.727
		c0-17.164-4.212-33.315-11.52-47.604L214.458,363.768z"/>
	<path style="fill:#72C6EF;" d="M256,162.913c-57.844,0-104.727,46.883-104.727,104.727c0,30.324,12.963,57.553,33.571,76.684
		l143.104-152.646C309.178,173.886,283.892,162.913,256,162.913z M256,221.095c-25.67,0-46.545,20.876-46.545,46.545
		c0,6.423-5.213,11.636-11.636,11.636c-6.423,0-11.636-5.213-11.636-11.636c0-38.505,31.313-69.818,69.818-69.818
		c6.423,0,11.636,5.213,11.636,11.636C267.636,215.881,262.423,221.095,256,221.095z"/>
</g>
<g>
	<path style="fill:#00384E;" d="M384,209.458c0,6.423,5.213,11.636,11.636,11.636h58.182c6.423,0,11.636-5.213,11.636-11.636
		v-23.273c0-6.423-5.213-11.636-11.636-11.636h-58.182c-6.423,0-11.636,5.213-11.636,11.636V209.458z"/>
	<path style="fill:#00384E;" d="M256,360.731c-11.613,0-22.691-2.234-32.943-6.132l-16.908,18.025
		c15.139,7.215,32,11.38,49.85,11.38c64.163,0,116.364-52.201,116.364-116.364c0-20.527-5.388-39.796-14.755-56.564l-16.943,18.071
		c5.353,11.753,8.425,24.762,8.425,38.493C349.091,318.968,307.328,360.731,256,360.731z"/>
	<path style="fill:#00384E;" d="M465.455,128.004h-29.975l-21.818,23.273h51.793c12.835,0,23.273,10.438,23.273,23.273v209.455
		c0,12.835-10.438,23.273-23.273,23.273H173.661l-21.818,23.273h313.612c25.67,0,46.545-20.876,46.545-46.545V174.549
		C512,148.879,491.124,128.004,465.455,128.004z"/>
	<path style="fill:#00384E;" d="M450.141,61.339c-4.689-4.41-12.067-4.177-16.454,0.524l-62.01,66.141h-4.364l-24.739-41.228
		c-6.272-10.461-17.734-16.954-29.929-16.954h-113.28c-12.195,0-23.668,6.493-29.929,16.954l-24.739,41.228H46.545
		C20.876,128.004,0,148.879,0,174.549v209.455c0,25.67,20.876,46.545,46.545,46.545h41.507l-3.444,3.677
		c-4.399,4.689-4.154,12.055,0.524,16.454c2.246,2.106,5.108,3.142,7.959,3.142c3.107,0,6.202-1.233,8.483-3.677L450.665,77.781
		C455.063,73.092,454.831,65.726,450.141,61.339z M46.545,407.276c-12.835,0-23.273-10.438-23.273-23.273V174.549
		c0-12.835,10.438-23.273,23.273-23.273h104.727c4.084,0,7.878-2.141,9.972-5.644L189.37,98.75c2.095-3.479,5.911-5.644,9.972-5.644
		h113.28c4.061,0,7.889,2.164,9.972,5.655l28.125,46.883c0.57,0.943,1.28,1.769,2.06,2.502l-25.821,27.543
		C307.34,160.434,282.74,151.276,256,151.276c-64.163,0-116.364,52.201-116.364,116.364c0,29.44,11.055,56.285,29.161,76.777
		l-58.927,62.86H46.545z M310.97,192.76L184.832,327.3c-13.603-16.163-21.923-36.911-21.923-59.66
		c0-51.328,41.763-93.091,93.091-93.091C276.596,174.549,295.552,181.391,310.97,192.76z"/>
</g>
<path style="fill:#FAA85F;" d="M93.091,395.64H46.545c-6.423,0-11.636-5.213-11.636-11.636V174.549
	c0-6.423,5.213-11.636,11.636-11.636h46.545c6.423,0,11.636,5.213,11.636,11.636v209.455
	C104.727,390.427,99.514,395.64,93.091,395.64z"/>
<g>
</g>
<g>
</g>
<g>
</g>
<g>
</g>
<g>
</g>
<g>
</g>
<g>
</g>
<g>
</g>
<g>
</g>
<g>
</g>
<g>
</g>
<g>
</g>
<g>
</g>
<g>
</g>
<g>
</g>
</svg>
